<?xml version="1.0" ?><svg enable-background="new 0 0 500 500" id="Layer_1" version="1.1" viewBox="0 0 500 500" xml:space="preserve" xmlns="http://www.w3.org/2000/svg" xmlns:xlink="http://www.w3.org/1999/xlink"><g><g><path d="M427.9,402.1H72.1V128.4h355.9V402.1z M99.4,374.8h301.1v-219H99.4V374.8z"/></g><g><path d="M373.2,292.6H126.8c-30.2,0-54.8-24.6-54.8-54.8v-41.1h27.4v41.1c0,15.1,12.3,27.4,27.4,27.4h246.4    c15.1,0,27.4-12.3,27.4-27.4v-41.1h27.4v41.1C427.9,268.1,403.4,292.6,373.2,292.6z"/></g><g><path d="M304.8,155.8H195.2v-41.1c0-15.1,12.3-27.4,27.4-27.4h54.8c15.1,0,27.4,12.3,27.4,27.4V155.8z M222.6,128.4h54.8v-13.7    h-54.8V128.4z"/></g><g><rect height="41.1" width="27.4" x="318.4" y="210.5"/></g><g><rect height="41.1" width="27.4" x="154.2" y="210.5"/></g></g></svg>